<svg width="338" height="385" viewBox="0 0 338 385" fill="none" xmlns="http://www.w3.org/2000/svg">
<path d="M233 0H3C1.34315 0 0 1.4538 0 3.24715V35.7186C0 37.512 1.34315 38.9658 3 38.9658H233C234.657 38.9658 236 37.512 236 35.7186V3.24715C236 1.4538 234.657 0 233 0Z" transform="translate(50.5 68.967)" fill="#C80F1E"/>
<path d="M8.88 9.224C9.616 9.384 10.1813 9.704 10.576 10.184C10.9813 10.6533 11.184 11.2613 11.184 12.008C11.184 12.968 10.8267 13.7093 10.112 14.232C9.408 14.744 8.36267 15 6.976 15H1.824V3.8H6.656C7.904 3.8 8.86933 4.05067 9.552 4.552C10.2453 5.05333 10.592 5.76267 10.592 6.68C10.592 7.29867 10.4373 7.82667 10.128 8.264C9.82933 8.69067 9.41333 9.01067 8.88 9.224ZM3.008 4.776V8.84H6.576C7.48267 8.84 8.18133 8.66933 8.672 8.328C9.16267 7.976 9.408 7.46933 9.408 6.808C9.408 6.14667 9.16267 5.64533 8.672 5.304C8.18133 4.952 7.48267 4.776 6.576 4.776H3.008ZM6.96 14.024C7.96267 14.024 8.72 13.8533 9.232 13.512C9.744 13.1707 10 12.6373 10 11.912C10 10.5147 8.98667 9.816 6.96 9.816H3.008V14.024H6.96ZM18.3985 15.096C16.9478 15.096 15.8172 14.68 15.0065 13.848C14.1958 13.016 13.7905 11.8053 13.7905 10.216V3.8H14.9745V10.168C14.9745 11.4693 15.2678 12.44 15.8545 13.08C16.4412 13.72 17.2892 14.04 18.3985 14.04C19.5185 14.04 20.3718 13.72 20.9585 13.08C21.5452 12.44 21.8385 11.4693 21.8385 10.168V3.8H22.9905V10.216C22.9905 11.8053 22.5852 13.016 21.7745 13.848C20.9745 14.68 19.8492 15.096 18.3985 15.096ZM26.5584 3.8H31.1184C32.3024 3.8 33.3477 4.04 34.2544 4.52C35.161 4.98933 35.865 5.65067 36.3664 6.504C36.8677 7.34667 37.1184 8.312 37.1184 9.4C37.1184 10.488 36.8677 11.4587 36.3664 12.312C35.865 13.1547 35.161 13.816 34.2544 14.296C33.3477 14.7653 32.3024 15 31.1184 15H26.5584V3.8ZM31.0544 13.976C32.0357 13.976 32.8944 13.784 33.6304 13.4C34.3664 13.0053 34.937 12.4667 35.3424 11.784C35.7477 11.0907 35.9504 10.296 35.9504 9.4C35.9504 8.504 35.7477 7.71467 35.3424 7.032C34.937 6.33867 34.3664 5.8 33.6304 5.416C32.8944 5.02133 32.0357 4.824 31.0544 4.824H27.7424V13.976H31.0544ZM47.6651 9.4H48.8011V13.672C48.2785 14.1307 47.6598 14.4827 46.9451 14.728C46.2305 14.9733 45.4785 15.096 44.6891 15.096C43.5691 15.096 42.5611 14.8507 41.6651 14.36C40.7691 13.8693 40.0651 13.192 39.5531 12.328C39.0411 11.4533 38.7851 10.4773 38.7851 9.4C38.7851 8.32267 39.0411 7.352 39.5531 6.488C40.0651 5.61333 40.7691 4.93067 41.6651 4.44C42.5611 3.94933 43.5745 3.704 44.7051 3.704C45.5585 3.704 46.3425 3.84267 47.0571 4.12C47.7718 4.38667 48.3745 4.78667 48.8651 5.32L48.1291 6.072C47.2438 5.19733 46.1185 4.76 44.7531 4.76C43.8465 4.76 43.0251 4.96267 42.2891 5.368C41.5638 5.76267 40.9931 6.31733 40.5771 7.032C40.1611 7.736 39.9531 8.52533 39.9531 9.4C39.9531 10.2747 40.1611 11.064 40.5771 11.768C40.9931 12.472 41.5638 13.0267 42.2891 13.432C43.0145 13.8373 43.8305 14.04 44.7371 14.04C45.8891 14.04 46.8651 13.752 47.6651 13.176V9.4ZM60.0721 13.976V15H52.1521V3.8H59.8321V4.824H53.3361V8.808H59.1281V9.816H53.3361V13.976H60.0721ZM65.0312 4.824H61.0953V3.8H70.1512V4.824H66.2153V15H65.0312V4.824Z" transform="translate(134.016 77.6261)" fill="white" fill-opacity="0.8"/>
<path d="M233 0H3C1.34315 0 0 1.4538 0 3.24715V35.7186C0 37.512 1.34315 38.9658 3 38.9658H233C234.657 38.9658 236 37.512 236 35.7186V3.24715C236 1.4538 234.657 0 233 0Z" transform="translate(50.5 115.51)" fill="#E28F4A"/>
<path d="M1.824 3.8H6.384C7.568 3.8 8.61333 4.04 9.52 4.52C10.4267 4.98933 11.1307 5.65067 11.632 6.504C12.1333 7.34667 12.384 8.312 12.384 9.4C12.384 10.488 12.1333 11.4587 11.632 12.312C11.1307 13.1547 10.4267 13.816 9.52 14.296C8.61333 14.7653 7.568 15 6.384 15H1.824V3.8ZM6.32 13.976C7.30133 13.976 8.16 13.784 8.896 13.4C9.632 13.0053 10.2027 12.4667 10.608 11.784C11.0133 11.0907 11.216 10.296 11.216 9.4C11.216 8.504 11.0133 7.71467 10.608 7.032C10.2027 6.33867 9.632 5.8 8.896 5.416C8.16 5.02133 7.30133 4.824 6.32 4.824H3.008V13.976H6.32ZM22.9628 13.976V15H15.0428V3.8H22.7227V4.824H16.2267V8.808H22.0188V9.816H16.2267V13.976H22.9628ZM32.7699 12.008H26.5299L25.1859 15H23.9539L29.0739 3.8H30.2419L35.3619 15H34.1139L32.7699 12.008ZM32.3379 11.048L29.6499 5.032L26.9619 11.048H32.3379ZM37.2146 3.8H41.7746C42.9586 3.8 44.004 4.04 44.9106 4.52C45.8173 4.98933 46.5213 5.65067 47.0226 6.504C47.524 7.34667 47.7746 8.312 47.7746 9.4C47.7746 10.488 47.524 11.4587 47.0226 12.312C46.5213 13.1547 45.8173 13.816 44.9106 14.296C44.004 14.7653 42.9586 15 41.7746 15H37.2146V3.8ZM41.7106 13.976C42.692 13.976 43.5506 13.784 44.2866 13.4C45.0226 13.0053 45.5933 12.4667 45.9986 11.784C46.404 11.0907 46.6066 10.296 46.6066 9.4C46.6066 8.504 46.404 7.71467 45.9986 7.032C45.5933 6.33867 45.0226 5.8 44.2866 5.416C43.5506 5.02133 42.692 4.824 41.7106 4.824H38.3986V13.976H41.7106ZM50.4334 3.8H51.6174V13.976H57.8894V15H50.4334V3.8ZM59.8553 3.8H61.0392V15H59.8553V3.8ZM74.0434 3.8V15H73.0674L65.8674 5.912V15H64.6834V3.8H65.6594L72.8754 12.888V3.8H74.0434ZM85.619 13.976V15H77.699V3.8H85.379V4.824H78.883V8.808H84.675V9.816H78.883V13.976H85.619Z" transform="translate(126.212 124.169)" fill="white" fill-opacity="0.8"/>
<path d="M233 0H3C1.34315 0 0 1.4538 0 3.24715V35.7186C0 37.512 1.34315 38.9658 3 38.9658H233C234.657 38.9658 236 37.512 236 35.7186V3.24715C236 1.4538 234.657 0 233 0Z" transform="translate(50.5 163.134)" fill="#EFC04F"/>
<path d="M4.912 15.096C4.08 15.096 3.28 14.9627 2.512 14.696C1.75467 14.4293 1.168 14.0773 0.752 13.64L1.216 12.728C1.62133 13.1333 2.16 13.464 2.832 13.72C3.504 13.9653 4.19733 14.088 4.912 14.088C5.91467 14.088 6.66667 13.9067 7.168 13.544C7.66933 13.1707 7.92 12.6907 7.92 12.104C7.92 11.656 7.78133 11.2987 7.504 11.032C7.23733 10.7653 6.90667 10.5627 6.512 10.424C6.11733 10.2747 5.568 10.1147 4.864 9.944C4.02133 9.73067 3.34933 9.528 2.848 9.336C2.34667 9.13333 1.91467 8.82933 1.552 8.424C1.2 8.01867 1.024 7.46933 1.024 6.776C1.024 6.21067 1.17333 5.69867 1.472 5.24C1.77067 4.77067 2.22933 4.39733 2.848 4.12C3.46667 3.84267 4.23467 3.704 5.152 3.704C5.792 3.704 6.416 3.79467 7.024 3.976C7.64267 4.14667 8.176 4.38667 8.624 4.696L8.224 5.64C7.75467 5.33067 7.25333 5.10133 6.72 4.952C6.18667 4.792 5.664 4.712 5.152 4.712C4.17067 4.712 3.42933 4.904 2.928 5.288C2.43733 5.66133 2.192 6.14667 2.192 6.744C2.192 7.192 2.32533 7.55467 2.592 7.832C2.86933 8.09867 3.21067 8.30667 3.616 8.456C4.032 8.59467 4.58667 8.74933 5.28 8.92C6.10133 9.12267 6.76267 9.32533 7.264 9.528C7.776 9.72 8.208 10.0187 8.56 10.424C8.912 10.8187 9.088 11.3573 9.088 12.04C9.088 12.6053 8.93333 13.1227 8.624 13.592C8.32533 14.0507 7.86133 14.4187 7.232 14.696C6.60267 14.9627 5.82933 15.096 4.912 15.096ZM16.5318 15.096C15.4224 15.096 14.4198 14.8507 13.5238 14.36C12.6384 13.8693 11.9397 13.192 11.4277 12.328C10.9264 11.4533 10.6758 10.4773 10.6758 9.4C10.6758 8.32267 10.9264 7.352 11.4277 6.488C11.9397 5.61333 12.6438 4.93067 13.5398 4.44C14.4358 3.94933 15.4384 3.704 16.5477 3.704C17.3798 3.704 18.1478 3.84267 18.8518 4.12C19.5558 4.39733 20.1531 4.80267 20.6438 5.336L19.8918 6.088C19.0171 5.20267 17.9131 4.76 16.5798 4.76C15.6944 4.76 14.8891 4.96267 14.1638 5.368C13.4384 5.77333 12.8678 6.328 12.4518 7.032C12.0464 7.736 11.8438 8.52533 11.8438 9.4C11.8438 10.2747 12.0464 11.064 12.4518 11.768C12.8678 12.472 13.4384 13.0267 14.1638 13.432C14.8891 13.8373 15.6944 14.04 16.5798 14.04C17.9237 14.04 19.0278 13.592 19.8918 12.696L20.6438 13.448C20.1531 13.9813 19.5504 14.392 18.8357 14.68C18.1317 14.9573 17.3637 15.096 16.5318 15.096ZM27.8294 15.096C26.72 15.096 25.712 14.8507 24.8054 14.36C23.9094 13.8587 23.2054 13.176 22.6934 12.312C22.192 11.448 21.9414 10.4773 21.9414 9.4C21.9414 8.32267 22.192 7.352 22.6934 6.488C23.2054 5.624 23.9094 4.94667 24.8054 4.456C25.712 3.95467 26.72 3.704 27.8294 3.704C28.9387 3.704 29.936 3.94933 30.8214 4.44C31.7174 4.93067 32.4214 5.61333 32.9334 6.488C33.4454 7.352 33.7014 8.32267 33.7014 9.4C33.7014 10.4773 33.4454 11.4533 32.9334 12.328C32.4214 13.192 31.7174 13.8693 30.8214 14.36C29.936 14.8507 28.9387 15.096 27.8294 15.096ZM27.8294 14.04C28.7147 14.04 29.5147 13.8427 30.2294 13.448C30.944 13.0427 31.504 12.488 31.9094 11.784C32.3147 11.0693 32.5174 10.2747 32.5174 9.4C32.5174 8.52533 32.3147 7.736 31.9094 7.032C31.504 6.31733 30.944 5.76267 30.2294 5.368C29.5147 4.96267 28.7147 4.76 27.8294 4.76C26.944 4.76 26.1387 4.96267 25.4134 5.368C24.6987 5.76267 24.1334 6.31733 23.7174 7.032C23.312 7.736 23.1094 8.52533 23.1094 9.4C23.1094 10.2747 23.312 11.0693 23.7174 11.784C24.1334 12.488 24.6987 13.0427 25.4134 13.448C26.1387 13.8427 26.944 14.04 27.8294 14.04ZM40.5472 3.8C41.9766 3.8 43.0966 4.14133 43.9073 4.824C44.7179 5.50667 45.1233 6.44533 45.1233 7.64C45.1233 8.83467 44.7179 9.77333 43.9073 10.456C43.0966 11.128 41.9766 11.464 40.5472 11.464H37.5392V15H36.3553V3.8H40.5472ZM40.5153 10.424C41.6246 10.424 42.4726 10.184 43.0592 9.704C43.6459 9.21333 43.9392 8.52533 43.9392 7.64C43.9392 6.73333 43.6459 6.04 43.0592 5.56C42.4726 5.06933 41.6246 4.824 40.5153 4.824H37.5392V10.424H40.5153ZM55.6034 13.976V15H47.6834V3.8H55.3634V4.824H48.8674V8.808H54.6594V9.816H48.8674V13.976H55.6034Z" transform="translate(140.748 171.793)" fill="white" fill-opacity="0.8"/>
<path d="M233 0H3C1.34315 0 0 1.4538 0 3.24715V35.7186C0 37.512 1.34315 38.9658 3 38.9658H233C234.657 38.9658 236 37.512 236 35.7186V3.24715C236 1.4538 234.657 0 233 0Z" transform="translate(50.5 209.677)" fill="#95C283"/>
<path d="M13.104 15.944C12.7627 16.36 12.3573 16.6747 11.888 16.888C11.4293 17.112 10.928 17.224 10.384 17.224C9.72267 17.224 9.09333 17.0587 8.496 16.728C7.90933 16.408 7.248 15.864 6.512 15.096C5.43467 15.064 4.464 14.7973 3.6 14.296C2.736 13.7947 2.05867 13.1173 1.568 12.264C1.07733 11.4107 0.832 10.456 0.832 9.4C0.832 8.32267 1.08267 7.352 1.584 6.488C2.096 5.624 2.8 4.94667 3.696 4.456C4.60267 3.95467 5.61067 3.704 6.72 3.704C7.82933 3.704 8.82667 3.94933 9.712 4.44C10.608 4.93067 11.312 5.61333 11.824 6.488C12.336 7.352 12.592 8.32267 12.592 9.4C12.592 10.3387 12.3947 11.2027 12 11.992C11.616 12.7707 11.072 13.4213 10.368 13.944C9.67467 14.4667 8.87467 14.8133 7.968 14.984C8.78933 15.848 9.6 16.28 10.4 16.28C11.232 16.28 11.9413 15.9387 12.528 15.256L13.104 15.944ZM2 9.4C2 10.2747 2.20267 11.064 2.608 11.768C3.024 12.472 3.58933 13.0267 4.304 13.432C5.02933 13.8373 5.83467 14.04 6.72 14.04C7.60533 14.04 8.40533 13.8373 9.12 13.432C9.83467 13.0267 10.3947 12.472 10.8 11.768C11.2053 11.064 11.408 10.2747 11.408 9.4C11.408 8.52533 11.2053 7.736 10.8 7.032C10.3947 6.328 9.83467 5.77333 9.12 5.368C8.40533 4.96267 7.60533 4.76 6.72 4.76C5.83467 4.76 5.02933 4.96267 4.304 5.368C3.58933 5.77333 3.024 6.328 2.608 7.032C2.20267 7.736 2 8.52533 2 9.4ZM19.7579 15.096C18.3072 15.096 17.1765 14.68 16.3659 13.848C15.5552 13.016 15.1499 11.8053 15.1499 10.216V3.8H16.3339V10.168C16.3339 11.4693 16.6272 12.44 17.2139 13.08C17.8005 13.72 18.6485 14.04 19.7579 14.04C20.8779 14.04 21.7312 13.72 22.3179 13.08C22.9045 12.44 23.1979 11.4693 23.1979 10.168V3.8H24.3499V10.216C24.3499 11.8053 23.9445 13.016 23.1339 13.848C22.3339 14.68 21.2085 15.096 19.7579 15.096ZM34.7074 12.008H28.4674L27.1234 15H25.8914L31.0114 3.8H32.1794L37.2994 15H36.0514L34.7074 12.008ZM34.2754 11.048L31.5874 5.032L28.8994 11.048H34.2754ZM39.1521 3.8H40.3361V13.976H46.6081V15H39.1521V3.8ZM48.574 3.8H49.758V15H48.574V3.8ZM55.5781 4.824H51.6421V3.8H60.6981V4.824H56.7621V15H55.5781V4.824ZM66.3515 11.128V15H65.1835V11.128L60.7035 3.8H61.9675L65.8075 10.088L69.6475 3.8H70.8315L66.3515 11.128Z" transform="translate(132.492 218.336)" fill="white" fill-opacity="0.8"/>
<path d="M44.7734 29.18C42.6934 29.18 40.8134 28.72 39.1334 27.8C37.4734 26.88 36.1634 25.61 35.2034 23.99C34.2634 22.35 33.7934 20.52 33.7934 18.5C33.7934 16.48 34.2634 14.66 35.2034 13.04C36.1634 11.4 37.4834 10.12 39.1634 9.2C40.8434 8.28 42.7234 7.82 44.8034 7.82C46.3634 7.82 47.8034 8.08 49.1234 8.6C50.4434 9.12 51.5634 9.88 52.4834 10.88L51.0734 12.29C49.4334 10.63 47.3634 9.8 44.8634 9.8C43.2034 9.8 41.6934 10.18 40.3334 10.94C38.9734 11.7 37.9034 12.74 37.1234 14.06C36.3634 15.38 35.9834 16.86 35.9834 18.5C35.9834 20.14 36.3634 21.62 37.1234 22.94C37.9034 24.26 38.9734 25.3 40.3334 26.06C41.6934 26.82 43.2034 27.2 44.8634 27.2C47.3834 27.2 49.4534 26.36 51.0734 24.68L52.4834 26.09C51.5634 27.09 50.4334 27.86 49.0934 28.4C47.7734 28.92 46.3334 29.18 44.7734 29.18ZM62.5128 29.15C60.9928 29.15 59.6228 28.81 58.4028 28.13C57.1828 27.43 56.2228 26.47 55.5228 25.25C54.8228 24.03 54.4728 22.65 54.4728 21.11C54.4728 19.57 54.8228 18.19 55.5228 16.97C56.2228 15.75 57.1828 14.8 58.4028 14.12C59.6228 13.44 60.9928 13.1 62.5128 13.1C64.0328 13.1 65.4028 13.44 66.6228 14.12C67.8428 14.8 68.7928 15.75 69.4728 16.97C70.1728 18.19 70.5228 19.57 70.5228 21.11C70.5228 22.65 70.1728 24.03 69.4728 25.25C68.7928 26.47 67.8428 27.43 66.6228 28.13C65.4028 28.81 64.0328 29.15 62.5128 29.15ZM62.5128 27.26C63.6328 27.26 64.6328 27.01 65.5128 26.51C66.4128 25.99 67.1128 25.26 67.6128 24.32C68.1128 23.38 68.3628 22.31 68.3628 21.11C68.3628 19.91 68.1128 18.84 67.6128 17.9C67.1128 16.96 66.4128 16.24 65.5128 15.74C64.6328 15.22 63.6328 14.96 62.5128 14.96C61.3928 14.96 60.3828 15.22 59.4828 15.74C58.6028 16.24 57.9028 16.96 57.3828 17.9C56.8828 18.84 56.6328 19.91 56.6328 21.11C56.6328 22.31 56.8828 23.38 57.3828 24.32C57.9028 25.26 58.6028 25.99 59.4828 26.51C60.3828 27.01 61.3928 27.26 62.5128 27.26ZM82.9114 13.1C84.8914 13.1 86.4614 13.68 87.6214 14.84C88.8014 15.98 89.3914 17.65 89.3914 19.85V29H87.2614V20.06C87.2614 18.42 86.8514 17.17 86.0314 16.31C85.2114 15.45 84.0414 15.02 82.5214 15.02C80.8214 15.02 79.4714 15.53 78.4714 16.55C77.4914 17.55 77.0014 18.94 77.0014 20.72V29H74.8714V13.22H76.9114V16.13C77.4914 15.17 78.2914 14.43 79.3114 13.91C80.3514 13.37 81.5514 13.1 82.9114 13.1ZM99.4041 29.15C98.1241 29.15 96.8941 28.97 95.7141 28.61C94.5541 28.23 93.6441 27.76 92.9841 27.2L93.9441 25.52C94.6041 26.04 95.4341 26.47 96.4341 26.81C97.4341 27.13 98.4741 27.29 99.5541 27.29C100.994 27.29 102.054 27.07 102.734 26.63C103.434 26.17 103.784 25.53 103.784 24.71C103.784 24.13 103.594 23.68 103.214 23.36C102.834 23.02 102.354 22.77 101.774 22.61C101.194 22.43 100.424 22.26 99.4641 22.1C98.1841 21.86 97.1541 21.62 96.3741 21.38C95.5941 21.12 94.9241 20.69 94.3641 20.09C93.8241 19.49 93.5541 18.66 93.5541 17.6C93.5541 16.28 94.1041 15.2 95.2041 14.36C96.3041 13.52 97.8341 13.1 99.7941 13.1C100.814 13.1 101.834 13.24 102.854 13.52C103.874 13.78 104.714 14.13 105.374 14.57L104.444 16.28C103.144 15.38 101.594 14.93 99.7941 14.93C98.4341 14.93 97.4041 15.17 96.7041 15.65C96.0241 16.13 95.6841 16.76 95.6841 17.54C95.6841 18.14 95.8741 18.62 96.2541 18.98C96.6541 19.34 97.1441 19.61 97.7241 19.79C98.3041 19.95 99.1041 20.12 100.124 20.3C101.384 20.54 102.394 20.78 103.154 21.02C103.914 21.26 104.564 21.67 105.104 22.25C105.644 22.83 105.914 23.63 105.914 24.65C105.914 26.03 105.334 27.13 104.174 27.95C103.034 28.75 101.444 29.15 99.4041 29.15ZM118.162 28.04C117.762 28.4 117.262 28.68 116.662 28.88C116.082 29.06 115.472 29.15 114.832 29.15C113.352 29.15 112.212 28.75 111.412 27.95C110.612 27.15 110.212 26.02 110.212 24.56V15.02H107.392V13.22H110.212V9.77H112.342V13.22H117.142V15.02H112.342V24.44C112.342 25.38 112.572 26.1 113.032 26.6C113.512 27.08 114.192 27.32 115.072 27.32C115.512 27.32 115.932 27.25 116.332 27.11C116.752 26.97 117.112 26.77 117.412 26.51L118.162 28.04ZM124.079 16.31C124.579 15.25 125.319 14.45 126.299 13.91C127.299 13.37 128.529 13.1 129.989 13.1V15.17L129.479 15.14C127.819 15.14 126.519 15.65 125.579 16.67C124.639 17.69 124.169 19.12 124.169 20.96V29H122.039V13.22H124.079V16.31ZM139.337 13.1C141.397 13.1 142.977 13.62 144.077 14.66C145.177 15.68 145.727 17.2 145.727 19.22V29H143.687V26.54C143.207 27.36 142.497 28 141.557 28.46C140.637 28.92 139.537 29.15 138.257 29.15C136.497 29.15 135.097 28.73 134.057 27.89C133.017 27.05 132.497 25.94 132.497 24.56C132.497 23.22 132.977 22.14 133.937 21.32C134.917 20.5 136.467 20.09 138.587 20.09H143.597V19.13C143.597 17.77 143.217 16.74 142.457 16.04C141.697 15.32 140.587 14.96 139.127 14.96C138.127 14.96 137.167 15.13 136.247 15.47C135.327 15.79 134.537 16.24 133.877 16.82L132.917 15.23C133.717 14.55 134.677 14.03 135.797 13.67C136.917 13.29 138.097 13.1 139.337 13.1ZM138.587 27.47C139.787 27.47 140.817 27.2 141.677 26.66C142.537 26.1 143.177 25.3 143.597 24.26V21.68H138.647C135.947 21.68 134.597 22.62 134.597 24.5C134.597 25.42 134.947 26.15 135.647 26.69C136.347 27.21 137.327 27.47 138.587 27.47ZM151.512 13.22H153.642V29H151.512V13.22ZM152.592 9.77C152.152 9.77 151.782 9.62 151.482 9.32C151.182 9.02 151.032 8.66 151.032 8.24C151.032 7.84 151.182 7.49 151.482 7.19C151.782 6.89 152.152 6.74 152.592 6.74C153.032 6.74 153.402 6.89 153.702 7.19C154.002 7.47 154.152 7.81 154.152 8.21C154.152 8.65 154.002 9.02 153.702 9.32C153.402 9.62 153.032 9.77 152.592 9.77ZM167.609 13.1C169.589 13.1 171.159 13.68 172.319 14.84C173.499 15.98 174.089 17.65 174.089 19.85V29H171.959V20.06C171.959 18.42 171.549 17.17 170.729 16.31C169.909 15.45 168.739 15.02 167.219 15.02C165.519 15.02 164.169 15.53 163.169 16.55C162.189 17.55 161.699 18.94 161.699 20.72V29H159.569V13.22H161.609V16.13C162.189 15.17 162.989 14.43 164.009 13.91C165.049 13.37 166.249 13.1 167.609 13.1ZM188.181 28.04C187.781 28.4 187.281 28.68 186.681 28.88C186.101 29.06 185.491 29.15 184.851 29.15C183.371 29.15 182.231 28.75 181.431 27.95C180.631 27.15 180.231 26.02 180.231 24.56V15.02H177.411V13.22H180.231V9.77H182.361V13.22H187.161V15.02H182.361V24.44C182.361 25.38 182.591 26.1 183.051 26.6C183.531 27.08 184.211 27.32 185.091 27.32C185.531 27.32 185.951 27.25 186.351 27.11C186.771 26.97 187.131 26.77 187.431 26.51L188.181 28.04ZM196.289 29.15C195.009 29.15 193.779 28.97 192.599 28.61C191.439 28.23 190.529 27.76 189.869 27.2L190.829 25.52C191.489 26.04 192.319 26.47 193.319 26.81C194.319 27.13 195.359 27.29 196.439 27.29C197.879 27.29 198.939 27.07 199.619 26.63C200.319 26.17 200.669 25.53 200.669 24.71C200.669 24.13 200.479 23.68 200.099 23.36C199.719 23.02 199.239 22.77 198.659 22.61C198.079 22.43 197.309 22.26 196.349 22.1C195.069 21.86 194.039 21.62 193.259 21.38C192.479 21.12 191.809 20.69 191.249 20.09C190.709 19.49 190.439 18.66 190.439 17.6C190.439 16.28 190.989 15.2 192.089 14.36C193.189 13.52 194.719 13.1 196.679 13.1C197.699 13.1 198.719 13.24 199.739 13.52C200.759 13.78 201.599 14.13 202.259 14.57L201.329 16.28C200.029 15.38 198.479 14.93 196.679 14.93C195.319 14.93 194.289 15.17 193.589 15.65C192.909 16.13 192.569 16.76 192.569 17.54C192.569 18.14 192.759 18.62 193.139 18.98C193.539 19.34 194.029 19.61 194.609 19.79C195.189 19.95 195.989 20.12 197.009 20.3C198.269 20.54 199.279 20.78 200.039 21.02C200.799 21.26 201.449 21.67 201.989 22.25C202.529 22.83 202.799 23.63 202.799 24.65C202.799 26.03 202.219 27.13 201.059 27.95C199.919 28.75 198.329 29.15 196.289 29.15Z" transform="translate(51)" fill="#4A4A4A"/>
<path d="M30.6649 5.688L28.2769 12H27.4729L25.4809 6.828L23.4889 12H22.6849L20.3089 5.688H21.1249L23.1049 11.052L25.1329 5.688H25.8649L27.8809 11.052L29.8849 5.688H30.6649ZM37.268 9.108H31.988C32.036 9.764 32.288 10.296 32.744 10.704C33.2 11.104 33.776 11.304 34.472 11.304C34.864 11.304 35.224 11.236 35.552 11.1C35.88 10.956 36.164 10.748 36.404 10.476L36.884 11.028C36.604 11.364 36.252 11.62 35.828 11.796C35.412 11.972 34.952 12.06 34.448 12.06C33.8 12.06 33.224 11.924 32.72 11.652C32.224 11.372 31.836 10.988 31.556 10.5C31.276 10.012 31.136 9.46 31.136 8.844C31.136 8.228 31.268 7.676 31.532 7.188C31.804 6.7 32.172 6.32 32.636 6.048C33.108 5.776 33.636 5.64 34.22 5.64C34.804 5.64 35.328 5.776 35.792 6.048C36.256 6.32 36.62 6.7 36.884 7.188C37.148 7.668 37.28 8.22 37.28 8.844L37.268 9.108ZM34.22 6.372C33.612 6.372 33.1 6.568 32.684 6.96C32.276 7.344 32.044 7.848 31.988 8.472H36.464C36.408 7.848 36.172 7.344 35.756 6.96C35.348 6.568 34.836 6.372 34.22 6.372ZM45.3708 5.64C46.1628 5.64 46.7908 5.872 47.2548 6.336C47.7268 6.792 47.9628 7.46 47.9628 8.34V12H47.1108V8.424C47.1108 7.768 46.9468 7.268 46.6188 6.924C46.2908 6.58 45.8228 6.408 45.2148 6.408C44.5348 6.408 43.9948 6.612 43.5948 7.02C43.2028 7.42 43.0068 7.976 43.0068 8.688V12H42.1548V3.096H43.0068V6.792C43.2388 6.424 43.5588 6.14 43.9668 5.94C44.3748 5.74 44.8428 5.64 45.3708 5.64ZM52.4839 5.64C53.3079 5.64 53.9399 5.848 54.3799 6.264C54.8199 6.672 55.0399 7.28 55.0399 8.088V12H54.2239V11.016C54.0319 11.344 53.7479 11.6 53.3719 11.784C53.0039 11.968 52.5639 12.06 52.0519 12.06C51.3479 12.06 50.7879 11.892 50.3719 11.556C49.9559 11.22 49.7479 10.776 49.7479 10.224C49.7479 9.688 49.9399 9.256 50.3239 8.928C50.7159 8.6 51.3359 8.436 52.1839 8.436H54.1879V8.052C54.1879 7.508 54.0359 7.096 53.7319 6.816C53.4279 6.528 52.9839 6.384 52.3999 6.384C51.9999 6.384 51.6159 6.452 51.2479 6.588C50.8799 6.716 50.5639 6.896 50.2999 7.128L49.9159 6.492C50.2359 6.22 50.6199 6.012 51.0679 5.868C51.5159 5.716 51.9879 5.64 52.4839 5.64ZM52.1839 11.388C52.6639 11.388 53.0759 11.28 53.4199 11.064C53.7639 10.84 54.0199 10.52 54.1879 10.104V9.072H52.2079C51.1279 9.072 50.5879 9.448 50.5879 10.2C50.5879 10.568 50.7279 10.86 51.0079 11.076C51.2879 11.284 51.6799 11.388 52.1839 11.388ZM62.5408 5.688L59.7328 12H58.8568L56.0608 5.688H56.9488L59.3128 11.064L61.7008 5.688H62.5408ZM69.061 9.108H63.781C63.829 9.764 64.081 10.296 64.537 10.704C64.993 11.104 65.569 11.304 66.265 11.304C66.657 11.304 67.017 11.236 67.345 11.1C67.673 10.956 67.957 10.748 68.197 10.476L68.677 11.028C68.397 11.364 68.045 11.62 67.621 11.796C67.205 11.972 66.745 12.06 66.241 12.06C65.593 12.06 65.017 11.924 64.513 11.652C64.017 11.372 63.629 10.988 63.349 10.5C63.069 10.012 62.929 9.46 62.929 8.844C62.929 8.228 63.061 7.676 63.325 7.188C63.597 6.7 63.965 6.32 64.429 6.048C64.901 5.776 65.429 5.64 66.013 5.64C66.597 5.64 67.121 5.776 67.585 6.048C68.049 6.32 68.413 6.7 68.677 7.188C68.941 7.668 69.073 8.22 69.073 8.844L69.061 9.108ZM66.013 6.372C65.405 6.372 64.893 6.568 64.477 6.96C64.069 7.344 63.837 7.848 63.781 8.472H68.257C68.201 7.848 67.965 7.344 67.549 6.96C67.141 6.568 66.629 6.372 66.013 6.372ZM77.1638 5.64C77.9558 5.64 78.5838 5.872 79.0478 6.336C79.5198 6.792 79.7558 7.46 79.7558 8.34V12H78.9038V8.424C78.9038 7.768 78.7398 7.268 78.4118 6.924C78.0838 6.58 77.6158 6.408 77.0078 6.408C76.3278 6.408 75.7878 6.612 75.3878 7.02C74.9958 7.42 74.7998 7.976 74.7998 8.688V12H73.9478V5.688H74.7638V6.852C74.9958 6.468 75.3158 6.172 75.7238 5.964C76.1398 5.748 76.6198 5.64 77.1638 5.64ZM84.6723 12.06C84.0643 12.06 83.5163 11.924 83.0283 11.652C82.5403 11.372 82.1563 10.988 81.8763 10.5C81.5963 10.012 81.4563 9.46 81.4563 8.844C81.4563 8.228 81.5963 7.676 81.8763 7.188C82.1563 6.7 82.5403 6.32 83.0283 6.048C83.5163 5.776 84.0643 5.64 84.6723 5.64C85.2803 5.64 85.8283 5.776 86.3163 6.048C86.8043 6.32 87.1843 6.7 87.4563 7.188C87.7363 7.676 87.8763 8.228 87.8763 8.844C87.8763 9.46 87.7363 10.012 87.4563 10.5C87.1843 10.988 86.8043 11.372 86.3163 11.652C85.8283 11.924 85.2803 12.06 84.6723 12.06ZM84.6723 11.304C85.1203 11.304 85.5203 11.204 85.8723 11.004C86.2323 10.796 86.5123 10.504 86.7123 10.128C86.9123 9.752 87.0123 9.324 87.0123 8.844C87.0123 8.364 86.9123 7.936 86.7123 7.56C86.5123 7.184 86.2323 6.896 85.8723 6.696C85.5203 6.488 85.1203 6.384 84.6723 6.384C84.2243 6.384 83.8203 6.488 83.4603 6.696C83.1083 6.896 82.8283 7.184 82.6203 7.56C82.4203 7.936 82.3203 8.364 82.3203 8.844C82.3203 9.324 82.4203 9.752 82.6203 10.128C82.8283 10.504 83.1083 10.796 83.4603 11.004C83.8203 11.204 84.2243 11.304 84.6723 11.304ZM93.5724 6.924C93.7724 6.5 94.0684 6.18 94.4604 5.964C94.8604 5.748 95.3524 5.64 95.9364 5.64V6.468L95.7324 6.456C95.0684 6.456 94.5484 6.66 94.1724 7.068C93.7964 7.476 93.6084 8.048 93.6084 8.784V12H92.7564V5.688H93.5724V6.924ZM100 12.06C99.3924 12.06 98.8444 11.924 98.3564 11.652C97.8684 11.372 97.4844 10.988 97.2044 10.5C96.9244 10.012 96.7844 9.46 96.7844 8.844C96.7844 8.228 96.9244 7.676 97.2044 7.188C97.4844 6.7 97.8684 6.32 98.3564 6.048C98.8444 5.776 99.3924 5.64 100 5.64C100.608 5.64 101.156 5.776 101.644 6.048C102.132 6.32 102.512 6.7 102.784 7.188C103.064 7.676 103.204 8.228 103.204 8.844C103.204 9.46 103.064 10.012 102.784 10.5C102.512 10.988 102.132 11.372 101.644 11.652C101.156 11.924 100.608 12.06 100 12.06ZM100 11.304C100.448 11.304 100.848 11.204 101.2 11.004C101.56 10.796 101.84 10.504 102.04 10.128C102.24 9.752 102.34 9.324 102.34 8.844C102.34 8.364 102.24 7.936 102.04 7.56C101.84 7.184 101.56 6.896 101.2 6.696C100.848 6.488 100.448 6.384 100 6.384C99.5524 6.384 99.1484 6.488 98.7884 6.696C98.4364 6.896 98.1564 7.184 97.9484 7.56C97.7484 7.936 97.6484 8.364 97.6484 8.844C97.6484 9.324 97.7484 9.752 97.9484 10.128C98.1564 10.504 98.4364 10.796 98.7884 11.004C99.1484 11.204 99.5524 11.304 100 11.304ZM107.524 12.06C106.916 12.06 106.368 11.924 105.88 11.652C105.392 11.372 105.008 10.988 104.728 10.5C104.448 10.012 104.308 9.46 104.308 8.844C104.308 8.228 104.448 7.676 104.728 7.188C105.008 6.7 105.392 6.32 105.88 6.048C106.368 5.776 106.916 5.64 107.524 5.64C108.132 5.64 108.68 5.776 109.168 6.048C109.656 6.32 110.036 6.7 110.308 7.188C110.588 7.676 110.728 8.228 110.728 8.844C110.728 9.46 110.588 10.012 110.308 10.5C110.036 10.988 109.656 11.372 109.168 11.652C108.68 11.924 108.132 12.06 107.524 12.06ZM107.524 11.304C107.972 11.304 108.372 11.204 108.724 11.004C109.084 10.796 109.364 10.504 109.564 10.128C109.764 9.752 109.864 9.324 109.864 8.844C109.864 8.364 109.764 7.936 109.564 7.56C109.364 7.184 109.084 6.896 108.724 6.696C108.372 6.488 107.972 6.384 107.524 6.384C107.076 6.384 106.672 6.488 106.312 6.696C105.96 6.896 105.68 7.184 105.472 7.56C105.272 7.936 105.172 8.364 105.172 8.844C105.172 9.324 105.272 9.752 105.472 10.128C105.68 10.504 105.96 10.796 106.312 11.004C106.672 11.204 107.076 11.304 107.524 11.304ZM120.339 5.64C121.131 5.64 121.751 5.868 122.199 6.324C122.655 6.78 122.883 7.452 122.883 8.34V12H122.031V8.424C122.031 7.768 121.871 7.268 121.551 6.924C121.239 6.58 120.795 6.408 120.219 6.408C119.563 6.408 119.047 6.612 118.671 7.02C118.295 7.42 118.107 7.976 118.107 8.688V12H117.255V8.424C117.255 7.768 117.095 7.268 116.775 6.924C116.463 6.58 116.015 6.408 115.431 6.408C114.783 6.408 114.267 6.612 113.883 7.02C113.507 7.42 113.319 7.976 113.319 8.688V12H112.467V5.688H113.283V6.84C113.507 6.456 113.819 6.16 114.219 5.952C114.619 5.744 115.079 5.64 115.599 5.64C116.127 5.64 116.583 5.752 116.967 5.976C117.359 6.2 117.651 6.532 117.843 6.972C118.075 6.556 118.407 6.232 118.839 6C119.279 5.76 119.779 5.64 120.339 5.64ZM130.422 3.756C130.054 3.756 129.774 3.856 129.582 4.056C129.398 4.256 129.306 4.552 129.306 4.944V5.688H131.25V6.408H129.33V12H128.478V6.408H127.35V5.688H128.478V4.908C128.478 4.332 128.642 3.876 128.97 3.54C129.306 3.204 129.778 3.036 130.386 3.036C130.626 3.036 130.858 3.072 131.082 3.144C131.306 3.208 131.494 3.304 131.646 3.432L131.358 4.068C131.11 3.86 130.798 3.756 130.422 3.756ZM134.875 12.06C134.267 12.06 133.719 11.924 133.231 11.652C132.743 11.372 132.359 10.988 132.079 10.5C131.799 10.012 131.659 9.46 131.659 8.844C131.659 8.228 131.799 7.676 132.079 7.188C132.359 6.7 132.743 6.32 133.231 6.048C133.719 5.776 134.267 5.64 134.875 5.64C135.483 5.64 136.031 5.776 136.519 6.048C137.007 6.32 137.387 6.7 137.659 7.188C137.939 7.676 138.079 8.228 138.079 8.844C138.079 9.46 137.939 10.012 137.659 10.5C137.387 10.988 137.007 11.372 136.519 11.652C136.031 11.924 135.483 12.06 134.875 12.06ZM134.875 11.304C135.323 11.304 135.723 11.204 136.075 11.004C136.435 10.796 136.715 10.504 136.915 10.128C137.115 9.752 137.215 9.324 137.215 8.844C137.215 8.364 137.115 7.936 136.915 7.56C136.715 7.184 136.435 6.896 136.075 6.696C135.723 6.488 135.323 6.384 134.875 6.384C134.427 6.384 134.023 6.488 133.663 6.696C133.311 6.896 133.031 7.184 132.823 7.56C132.623 7.936 132.523 8.364 132.523 8.844C132.523 9.324 132.623 9.752 132.823 10.128C133.031 10.504 133.311 10.796 133.663 11.004C134.023 11.204 134.427 11.304 134.875 11.304ZM140.635 6.924C140.835 6.5 141.131 6.18 141.523 5.964C141.923 5.748 142.415 5.64 142.999 5.64V6.468L142.795 6.456C142.131 6.456 141.611 6.66 141.235 7.068C140.859 7.476 140.671 8.048 140.671 8.784V12H139.819V5.688H140.635V6.924ZM155.648 5.64C156.44 5.64 157.06 5.868 157.508 6.324C157.964 6.78 158.192 7.452 158.192 8.34V12H157.34V8.424C157.34 7.768 157.18 7.268 156.86 6.924C156.548 6.58 156.104 6.408 155.528 6.408C154.872 6.408 154.356 6.612 153.98 7.02C153.604 7.42 153.416 7.976 153.416 8.688V12H152.564V8.424C152.564 7.768 152.404 7.268 152.084 6.924C151.772 6.58 151.324 6.408 150.74 6.408C150.092 6.408 149.576 6.612 149.192 7.02C148.816 7.42 148.628 7.976 148.628 8.688V12H147.776V5.688H148.592V6.84C148.816 6.456 149.128 6.16 149.528 5.952C149.928 5.744 150.388 5.64 150.908 5.64C151.436 5.64 151.892 5.752 152.276 5.976C152.668 6.2 152.96 6.532 153.152 6.972C153.384 6.556 153.716 6.232 154.148 6C154.588 5.76 155.088 5.64 155.648 5.64ZM162.71 5.64C163.534 5.64 164.166 5.848 164.606 6.264C165.046 6.672 165.266 7.28 165.266 8.088V12H164.45V11.016C164.258 11.344 163.974 11.6 163.598 11.784C163.23 11.968 162.79 12.06 162.278 12.06C161.574 12.06 161.014 11.892 160.598 11.556C160.182 11.22 159.974 10.776 159.974 10.224C159.974 9.688 160.166 9.256 160.55 8.928C160.942 8.6 161.562 8.436 162.41 8.436H164.414V8.052C164.414 7.508 164.262 7.096 163.958 6.816C163.654 6.528 163.21 6.384 162.626 6.384C162.226 6.384 161.842 6.452 161.474 6.588C161.106 6.716 160.79 6.896 160.526 7.128L160.142 6.492C160.462 6.22 160.846 6.012 161.294 5.868C161.742 5.716 162.214 5.64 162.71 5.64ZM162.41 11.388C162.89 11.388 163.302 11.28 163.646 11.064C163.99 10.84 164.246 10.52 164.414 10.104V9.072H162.434C161.354 9.072 160.814 9.448 160.814 10.2C160.814 10.568 160.954 10.86 161.234 11.076C161.514 11.284 161.906 11.388 162.41 11.388ZM170.797 5.64C171.589 5.64 172.217 5.872 172.681 6.336C173.153 6.792 173.389 7.46 173.389 8.34V12H172.537V8.424C172.537 7.768 172.373 7.268 172.045 6.924C171.717 6.58 171.249 6.408 170.641 6.408C169.961 6.408 169.421 6.612 169.021 7.02C168.629 7.42 168.433 7.976 168.433 8.688V12H167.581V5.688H168.397V6.852C168.629 6.468 168.949 6.172 169.357 5.964C169.773 5.748 170.253 5.64 170.797 5.64ZM178.305 12.06C177.697 12.06 177.149 11.924 176.661 11.652C176.173 11.372 175.789 10.988 175.509 10.5C175.229 10.012 175.089 9.46 175.089 8.844C175.089 8.228 175.229 7.676 175.509 7.188C175.789 6.7 176.173 6.32 176.661 6.048C177.149 5.776 177.697 5.64 178.305 5.64C178.913 5.64 179.461 5.776 179.949 6.048C180.437 6.32 180.817 6.7 181.089 7.188C181.369 7.676 181.509 8.228 181.509 8.844C181.509 9.46 181.369 10.012 181.089 10.5C180.817 10.988 180.437 11.372 179.949 11.652C179.461 11.924 178.913 12.06 178.305 12.06ZM178.305 11.304C178.753 11.304 179.153 11.204 179.505 11.004C179.865 10.796 180.145 10.504 180.345 10.128C180.545 9.752 180.645 9.324 180.645 8.844C180.645 8.364 180.545 7.936 180.345 7.56C180.145 7.184 179.865 6.896 179.505 6.696C179.153 6.488 178.753 6.384 178.305 6.384C177.857 6.384 177.453 6.488 177.093 6.696C176.741 6.896 176.461 7.184 176.253 7.56C176.053 7.936 175.953 8.364 175.953 8.844C175.953 9.324 176.053 9.752 176.253 10.128C176.461 10.504 176.741 10.796 177.093 11.004C177.453 11.204 177.857 11.304 178.305 11.304ZM188.745 9.108H183.465C183.513 9.764 183.765 10.296 184.221 10.704C184.677 11.104 185.253 11.304 185.949 11.304C186.341 11.304 186.701 11.236 187.029 11.1C187.357 10.956 187.641 10.748 187.881 10.476L188.361 11.028C188.081 11.364 187.729 11.62 187.305 11.796C186.889 11.972 186.429 12.06 185.925 12.06C185.277 12.06 184.701 11.924 184.197 11.652C183.701 11.372 183.313 10.988 183.033 10.5C182.753 10.012 182.613 9.46 182.613 8.844C182.613 8.228 182.745 7.676 183.009 7.188C183.281 6.7 183.649 6.32 184.113 6.048C184.585 5.776 185.113 5.64 185.697 5.64C186.281 5.64 186.805 5.776 187.269 6.048C187.733 6.32 188.097 6.7 188.361 7.188C188.625 7.668 188.757 8.22 188.757 8.844L188.745 9.108ZM185.697 6.372C185.089 6.372 184.577 6.568 184.161 6.96C183.753 7.344 183.521 7.848 183.465 8.472H187.941C187.885 7.848 187.649 7.344 187.233 6.96C186.825 6.568 186.313 6.372 185.697 6.372ZM196.179 5.688V12H195.363V10.848C195.139 11.232 194.831 11.532 194.439 11.748C194.047 11.956 193.599 12.06 193.095 12.06C192.271 12.06 191.619 11.832 191.139 11.376C190.667 10.912 190.431 10.236 190.431 9.348V5.688H191.283V9.264C191.283 9.928 191.447 10.432 191.775 10.776C192.103 11.12 192.571 11.292 193.179 11.292C193.843 11.292 194.367 11.092 194.751 10.692C195.135 10.284 195.327 9.72 195.327 9V5.688H196.179ZM203.869 5.688L201.061 12H200.185L197.389 5.688H198.277L200.641 11.064L203.029 5.688H203.869ZM205.885 6.924C206.085 6.5 206.381 6.18 206.773 5.964C207.173 5.748 207.665 5.64 208.249 5.64V6.468L208.045 6.456C207.381 6.456 206.861 6.66 206.485 7.068C206.109 7.476 205.921 8.048 205.921 8.784V12H205.069V5.688H205.885V6.924ZM215.229 9.108H209.949C209.997 9.764 210.249 10.296 210.705 10.704C211.161 11.104 211.737 11.304 212.433 11.304C212.825 11.304 213.185 11.236 213.513 11.1C213.841 10.956 214.125 10.748 214.365 10.476L214.845 11.028C214.565 11.364 214.213 11.62 213.789 11.796C213.373 11.972 212.913 12.06 212.409 12.06C211.761 12.06 211.185 11.924 210.681 11.652C210.185 11.372 209.797 10.988 209.517 10.5C209.237 10.012 209.097 9.46 209.097 8.844C209.097 8.228 209.229 7.676 209.493 7.188C209.765 6.7 210.133 6.32 210.597 6.048C211.069 5.776 211.597 5.64 212.181 5.64C212.765 5.64 213.289 5.776 213.753 6.048C214.217 6.32 214.581 6.7 214.845 7.188C215.109 7.668 215.241 8.22 215.241 8.844L215.229 9.108ZM212.181 6.372C211.573 6.372 211.061 6.568 210.645 6.96C210.237 7.344 210.005 7.848 209.949 8.472H214.425C214.369 7.848 214.133 7.344 213.717 6.96C213.309 6.568 212.797 6.372 212.181 6.372Z" transform="translate(51 33)" fill="#4A4A4A"/>
<path d="M19.7743 5.688L17.3863 12H16.5823L14.5903 6.828L12.5983 12H11.7943L9.41827 5.688H10.2343L12.2143 11.052L14.2423 5.688H14.9743L16.9903 11.052L18.9943 5.688H19.7743ZM26.3774 9.108H21.0974C21.1454 9.764 21.3974 10.296 21.8534 10.704C22.3094 11.104 22.8854 11.304 23.5814 11.304C23.9734 11.304 24.3334 11.236 24.6614 11.1C24.9894 10.956 25.2734 10.748 25.5134 10.476L25.9934 11.028C25.7134 11.364 25.3614 11.62 24.9374 11.796C24.5214 11.972 24.0614 12.06 23.5574 12.06C22.9094 12.06 22.3334 11.924 21.8294 11.652C21.3334 11.372 20.9454 10.988 20.6654 10.5C20.3854 10.012 20.2454 9.46 20.2454 8.844C20.2454 8.228 20.3774 7.676 20.6414 7.188C20.9134 6.7 21.2814 6.32 21.7454 6.048C22.2174 5.776 22.7454 5.64 23.3294 5.64C23.9134 5.64 24.4374 5.776 24.9014 6.048C25.3654 6.32 25.7294 6.7 25.9934 7.188C26.2574 7.668 26.3894 8.22 26.3894 8.844L26.3774 9.108ZM23.3294 6.372C22.7214 6.372 22.2094 6.568 21.7934 6.96C21.3854 7.344 21.1534 7.848 21.0974 8.472H25.5734C25.5174 7.848 25.2814 7.344 24.8654 6.96C24.4574 6.568 23.9454 6.372 23.3294 6.372ZM33.8802 12.06C33.2562 12.06 32.6962 11.924 32.2002 11.652C31.7122 11.38 31.3282 11 31.0482 10.512C30.7682 10.016 30.6282 9.46 30.6282 8.844C30.6282 8.228 30.7682 7.676 31.0482 7.188C31.3282 6.7 31.7122 6.32 32.2002 6.048C32.6962 5.776 33.2562 5.64 33.8802 5.64C34.4242 5.64 34.9082 5.748 35.3322 5.964C35.7642 6.172 36.1042 6.48 36.3522 6.888L35.7162 7.32C35.5082 7.008 35.2442 6.776 34.9242 6.624C34.6042 6.464 34.2562 6.384 33.8802 6.384C33.4242 6.384 33.0122 6.488 32.6442 6.696C32.2842 6.896 32.0002 7.184 31.7922 7.56C31.5922 7.936 31.4922 8.364 31.4922 8.844C31.4922 9.332 31.5922 9.764 31.7922 10.14C32.0002 10.508 32.2842 10.796 32.6442 11.004C33.0122 11.204 33.4242 11.304 33.8802 11.304C34.2562 11.304 34.6042 11.228 34.9242 11.076C35.2442 10.924 35.5082 10.692 35.7162 10.38L36.3522 10.812C36.1042 11.22 35.7642 11.532 35.3322 11.748C34.9002 11.956 34.4162 12.06 33.8802 12.06ZM40.2339 5.64C41.0579 5.64 41.6899 5.848 42.1299 6.264C42.5699 6.672 42.7899 7.28 42.7899 8.088V12H41.9739V11.016C41.7819 11.344 41.4979 11.6 41.1219 11.784C40.7539 11.968 40.3139 12.06 39.8019 12.06C39.0979 12.06 38.5379 11.892 38.1219 11.556C37.7059 11.22 37.4979 10.776 37.4979 10.224C37.4979 9.688 37.6899 9.256 38.0739 8.928C38.4659 8.6 39.0859 8.436 39.9339 8.436H41.9379V8.052C41.9379 7.508 41.7859 7.096 41.4819 6.816C41.1779 6.528 40.7339 6.384 40.1499 6.384C39.7499 6.384 39.3659 6.452 38.9979 6.588C38.6299 6.716 38.3139 6.896 38.0499 7.128L37.6659 6.492C37.9859 6.22 38.3699 6.012 38.8179 5.868C39.2659 5.716 39.7379 5.64 40.2339 5.64ZM39.9339 11.388C40.4139 11.388 40.8259 11.28 41.1699 11.064C41.5139 10.84 41.7699 10.52 41.9379 10.104V9.072H39.9579C38.8779 9.072 38.3379 9.448 38.3379 10.2C38.3379 10.568 38.4779 10.86 38.7579 11.076C39.0379 11.284 39.4299 11.388 39.9339 11.388ZM48.32 5.64C49.112 5.64 49.74 5.872 50.204 6.336C50.676 6.792 50.912 7.46 50.912 8.34V12H50.06V8.424C50.06 7.768 49.896 7.268 49.568 6.924C49.24 6.58 48.772 6.408 48.164 6.408C47.484 6.408 46.944 6.612 46.544 7.02C46.152 7.42 45.956 7.976 45.956 8.688V12H45.104V5.688H45.92V6.852C46.152 6.468 46.472 6.172 46.88 5.964C47.296 5.748 47.776 5.64 48.32 5.64ZM58.0577 12.06C57.5457 12.06 57.0537 11.988 56.5817 11.844C56.1177 11.692 55.7537 11.504 55.4897 11.28L55.8737 10.608C56.1377 10.816 56.4697 10.988 56.8697 11.124C57.2697 11.252 57.6857 11.316 58.1177 11.316C58.6937 11.316 59.1177 11.228 59.3897 11.052C59.6697 10.868 59.8097 10.612 59.8097 10.284C59.8097 10.052 59.7337 9.872 59.5817 9.744C59.4297 9.608 59.2377 9.508 59.0057 9.444C58.7737 9.372 58.4657 9.304 58.0817 9.24C57.5697 9.144 57.1577 9.048 56.8457 8.952C56.5337 8.848 56.2657 8.676 56.0417 8.436C55.8257 8.196 55.7177 7.864 55.7177 7.44C55.7177 6.912 55.9377 6.48 56.3777 6.144C56.8177 5.808 57.4297 5.64 58.2137 5.64C58.6217 5.64 59.0297 5.696 59.4377 5.808C59.8457 5.912 60.1817 6.052 60.4457 6.228L60.0737 6.912C59.5537 6.552 58.9337 6.372 58.2137 6.372C57.6697 6.372 57.2577 6.468 56.9777 6.66C56.7057 6.852 56.5697 7.104 56.5697 7.416C56.5697 7.656 56.6457 7.848 56.7977 7.992C56.9577 8.136 57.1537 8.244 57.3857 8.316C57.6177 8.38 57.9377 8.448 58.3457 8.52C58.8497 8.616 59.2537 8.712 59.5577 8.808C59.8617 8.904 60.1217 9.068 60.3377 9.3C60.5537 9.532 60.6617 9.852 60.6617 10.26C60.6617 10.812 60.4297 11.252 59.9657 11.58C59.5097 11.9 58.8737 12.06 58.0577 12.06ZM64.4448 5.64C65.2688 5.64 65.9008 5.848 66.3408 6.264C66.7808 6.672 67.0008 7.28 67.0008 8.088V12H66.1848V11.016C65.9928 11.344 65.7088 11.6 65.3328 11.784C64.9648 11.968 64.5248 12.06 64.0128 12.06C63.3088 12.06 62.7488 11.892 62.3328 11.556C61.9168 11.22 61.7088 10.776 61.7088 10.224C61.7088 9.688 61.9008 9.256 62.2848 8.928C62.6768 8.6 63.2968 8.436 64.1448 8.436H66.1488V8.052C66.1488 7.508 65.9968 7.096 65.6928 6.816C65.3888 6.528 64.9448 6.384 64.3608 6.384C63.9608 6.384 63.5768 6.452 63.2088 6.588C62.8408 6.716 62.5248 6.896 62.2608 7.128L61.8768 6.492C62.1968 6.22 62.5808 6.012 63.0288 5.868C63.4768 5.716 63.9488 5.64 64.4448 5.64ZM64.1448 11.388C64.6248 11.388 65.0368 11.28 65.3808 11.064C65.7248 10.84 65.9808 10.52 66.1488 10.104V9.072H64.1688C63.0888 9.072 62.5488 9.448 62.5488 10.2C62.5488 10.568 62.6888 10.86 62.9688 11.076C63.2488 11.284 63.6408 11.388 64.1448 11.388ZM71.9544 12.06C71.3304 12.06 70.7704 11.924 70.2744 11.652C69.7864 11.38 69.4024 11 69.1224 10.512C68.8424 10.016 68.7024 9.46 68.7024 8.844C68.7024 8.228 68.8424 7.676 69.1224 7.188C69.4024 6.7 69.7864 6.32 70.2744 6.048C70.7704 5.776 71.3304 5.64 71.9544 5.64C72.4984 5.64 72.9824 5.748 73.4064 5.964C73.8384 6.172 74.1784 6.48 74.4264 6.888L73.7904 7.32C73.5824 7.008 73.3184 6.776 72.9984 6.624C72.6784 6.464 72.3304 6.384 71.9544 6.384C71.4984 6.384 71.0864 6.488 70.7184 6.696C70.3584 6.896 70.0744 7.184 69.8664 7.56C69.6664 7.936 69.5664 8.364 69.5664 8.844C69.5664 9.332 69.6664 9.764 69.8664 10.14C70.0744 10.508 70.3584 10.796 70.7184 11.004C71.0864 11.204 71.4984 11.304 71.9544 11.304C72.3304 11.304 72.6784 11.228 72.9984 11.076C73.3184 10.924 73.5824 10.692 73.7904 10.38L74.4264 10.812C74.1784 11.22 73.8384 11.532 73.4064 11.748C72.9744 11.956 72.4904 12.06 71.9544 12.06ZM76.9161 6.924C77.1161 6.5 77.4121 6.18 77.8041 5.964C78.2041 5.748 78.6961 5.64 79.2801 5.64V6.468L79.0761 6.456C78.4121 6.456 77.8921 6.66 77.5161 7.068C77.1401 7.476 76.9521 8.048 76.9521 8.784V12H76.1001V5.688H76.9161V6.924ZM80.8228 5.688H81.6748V12H80.8228V5.688ZM81.2548 4.308C81.0788 4.308 80.9308 4.248 80.8108 4.128C80.6908 4.008 80.6308 3.864 80.6308 3.696C80.6308 3.536 80.6908 3.396 80.8108 3.276C80.9308 3.156 81.0788 3.096 81.2548 3.096C81.4308 3.096 81.5788 3.156 81.6988 3.276C81.8188 3.388 81.8788 3.524 81.8788 3.684C81.8788 3.86 81.8188 4.008 81.6988 4.128C81.5788 4.248 81.4308 4.308 81.2548 4.308ZM86.1334 3.756C85.7654 3.756 85.4854 3.856 85.2934 4.056C85.1094 4.256 85.0174 4.552 85.0174 4.944V5.688H86.9614V6.408H85.0414V12H84.1894V6.408H83.0614V5.688H84.1894V4.908C84.1894 4.332 84.3534 3.876 84.6814 3.54C85.0174 3.204 85.4894 3.036 86.0974 3.036C86.3374 3.036 86.5694 3.072 86.7934 3.144C87.0174 3.208 87.2054 3.304 87.3574 3.432L87.0694 4.068C86.8214 3.86 86.5094 3.756 86.1334 3.756ZM89.0734 5.688H89.9254V12H89.0734V5.688ZM89.5054 4.308C89.3294 4.308 89.1814 4.248 89.0614 4.128C88.9414 4.008 88.8814 3.864 88.8814 3.696C88.8814 3.536 88.9414 3.396 89.0614 3.276C89.1814 3.156 89.3294 3.096 89.5054 3.096C89.6814 3.096 89.8294 3.156 89.9494 3.276C90.0694 3.388 90.1294 3.524 90.1294 3.684C90.1294 3.86 90.0694 4.008 89.9494 4.128C89.8294 4.248 89.6814 4.308 89.5054 4.308ZM94.9231 12.06C94.2991 12.06 93.7391 11.924 93.2431 11.652C92.7551 11.38 92.3711 11 92.0911 10.512C91.8111 10.016 91.6711 9.46 91.6711 8.844C91.6711 8.228 91.8111 7.676 92.0911 7.188C92.3711 6.7 92.7551 6.32 93.2431 6.048C93.7391 5.776 94.2991 5.64 94.9231 5.64C95.4671 5.64 95.9511 5.748 96.3751 5.964C96.8071 6.172 97.1471 6.48 97.3951 6.888L96.7591 7.32C96.5511 7.008 96.2871 6.776 95.9671 6.624C95.6471 6.464 95.2991 6.384 94.9231 6.384C94.4671 6.384 94.0551 6.488 93.6871 6.696C93.3271 6.896 93.0431 7.184 92.8351 7.56C92.6351 7.936 92.5351 8.364 92.5351 8.844C92.5351 9.332 92.6351 9.764 92.8351 10.14C93.0431 10.508 93.3271 10.796 93.6871 11.004C94.0551 11.204 94.4671 11.304 94.9231 11.304C95.2991 11.304 95.6471 11.228 95.9671 11.076C96.2871 10.924 96.5511 10.692 96.7591 10.38L97.3951 10.812C97.1471 11.22 96.8071 11.532 96.3751 11.748C95.9431 11.956 95.4591 12.06 94.9231 12.06ZM104.459 9.108H99.1794C99.2274 9.764 99.4794 10.296 99.9354 10.704C100.391 11.104 100.967 11.304 101.663 11.304C102.055 11.304 102.415 11.236 102.743 11.1C103.071 10.956 103.355 10.748 103.595 10.476L104.075 11.028C103.795 11.364 103.443 11.62 103.019 11.796C102.603 11.972 102.143 12.06 101.639 12.06C100.991 12.06 100.415 11.924 99.9114 11.652C99.4154 11.372 99.0274 10.988 98.7474 10.5C98.4674 10.012 98.3274 9.46 98.3274 8.844C98.3274 8.228 98.4594 7.676 98.7234 7.188C98.9954 6.7 99.3634 6.32 99.8274 6.048C100.299 5.776 100.827 5.64 101.411 5.64C101.995 5.64 102.519 5.776 102.983 6.048C103.447 6.32 103.811 6.7 104.075 7.188C104.339 7.668 104.471 8.22 104.471 8.844L104.459 9.108ZM101.411 6.372C100.803 6.372 100.291 6.568 99.8754 6.96C99.4674 7.344 99.2354 7.848 99.1794 8.472H103.655C103.599 7.848 103.363 7.344 102.947 6.96C102.539 6.568 102.027 6.372 101.411 6.372ZM112.67 11.616C112.51 11.76 112.31 11.872 112.07 11.952C111.838 12.024 111.594 12.06 111.338 12.06C110.746 12.06 110.29 11.9 109.97 11.58C109.65 11.26 109.49 10.808 109.49 10.224V6.408H108.362V5.688H109.49V4.308H110.342V5.688H112.262V6.408H110.342V10.176C110.342 10.552 110.434 10.84 110.618 11.04C110.81 11.232 111.082 11.328 111.434 11.328C111.61 11.328 111.778 11.3 111.938 11.244C112.106 11.188 112.25 11.108 112.37 11.004L112.67 11.616ZM117.437 5.64C118.229 5.64 118.857 5.872 119.321 6.336C119.793 6.792 120.029 7.46 120.029 8.34V12H119.177V8.424C119.177 7.768 119.013 7.268 118.685 6.924C118.357 6.58 117.889 6.408 117.281 6.408C116.601 6.408 116.061 6.612 115.661 7.02C115.269 7.42 115.073 7.976 115.073 8.688V12H114.221V3.096H115.073V6.792C115.305 6.424 115.625 6.14 116.033 5.94C116.441 5.74 116.909 5.64 117.437 5.64ZM124.55 5.64C125.374 5.64 126.006 5.848 126.446 6.264C126.886 6.672 127.106 7.28 127.106 8.088V12H126.29V11.016C126.098 11.344 125.814 11.6 125.438 11.784C125.07 11.968 124.63 12.06 124.118 12.06C123.414 12.06 122.854 11.892 122.438 11.556C122.022 11.22 121.814 10.776 121.814 10.224C121.814 9.688 122.006 9.256 122.39 8.928C122.782 8.6 123.402 8.436 124.25 8.436H126.254V8.052C126.254 7.508 126.102 7.096 125.798 6.816C125.494 6.528 125.05 6.384 124.466 6.384C124.066 6.384 123.682 6.452 123.314 6.588C122.946 6.716 122.63 6.896 122.366 7.128L121.982 6.492C122.302 6.22 122.686 6.012 123.134 5.868C123.582 5.716 124.054 5.64 124.55 5.64ZM124.25 11.388C124.73 11.388 125.142 11.28 125.486 11.064C125.83 10.84 126.086 10.52 126.254 10.104V9.072H124.274C123.194 9.072 122.654 9.448 122.654 10.2C122.654 10.568 122.794 10.86 123.074 11.076C123.354 11.284 123.746 11.388 124.25 11.388ZM132.744 11.616C132.584 11.76 132.384 11.872 132.144 11.952C131.912 12.024 131.668 12.06 131.412 12.06C130.82 12.06 130.364 11.9 130.044 11.58C129.724 11.26 129.564 10.808 129.564 10.224V6.408H128.436V5.688H129.564V4.308H130.416V5.688H132.336V6.408H130.416V10.176C130.416 10.552 130.508 10.84 130.692 11.04C130.884 11.232 131.156 11.328 131.508 11.328C131.684 11.328 131.852 11.3 132.012 11.244C132.18 11.188 132.324 11.108 132.444 11.004L132.744 11.616ZM137.436 5.688H138.288V12H137.436V5.688ZM137.868 4.308C137.692 4.308 137.544 4.248 137.424 4.128C137.304 4.008 137.244 3.864 137.244 3.696C137.244 3.536 137.304 3.396 137.424 3.276C137.544 3.156 137.692 3.096 137.868 3.096C138.044 3.096 138.192 3.156 138.312 3.276C138.432 3.388 138.492 3.524 138.492 3.684C138.492 3.86 138.432 4.008 138.312 4.128C138.192 4.248 138.044 4.308 137.868 4.308ZM143.875 5.64C144.667 5.64 145.295 5.872 145.759 6.336C146.231 6.792 146.467 7.46 146.467 8.34V12H145.615V8.424C145.615 7.768 145.451 7.268 145.123 6.924C144.795 6.58 144.327 6.408 143.719 6.408C143.039 6.408 142.499 6.612 142.099 7.02C141.707 7.42 141.511 7.976 141.511 8.688V12H140.659V5.688H141.475V6.852C141.707 6.468 142.027 6.172 142.435 5.964C142.851 5.748 143.331 5.64 143.875 5.64ZM154.5 12.06C153.892 12.06 153.344 11.924 152.856 11.652C152.368 11.372 151.984 10.988 151.704 10.5C151.424 10.012 151.284 9.46 151.284 8.844C151.284 8.228 151.424 7.676 151.704 7.188C151.984 6.7 152.368 6.32 152.856 6.048C153.344 5.776 153.892 5.64 154.5 5.64C155.108 5.64 155.656 5.776 156.144 6.048C156.632 6.32 157.012 6.7 157.284 7.188C157.564 7.676 157.704 8.228 157.704 8.844C157.704 9.46 157.564 10.012 157.284 10.5C157.012 10.988 156.632 11.372 156.144 11.652C155.656 11.924 155.108 12.06 154.5 12.06ZM154.5 11.304C154.948 11.304 155.348 11.204 155.7 11.004C156.06 10.796 156.34 10.504 156.54 10.128C156.74 9.752 156.84 9.324 156.84 8.844C156.84 8.364 156.74 7.936 156.54 7.56C156.34 7.184 156.06 6.896 155.7 6.696C155.348 6.488 154.948 6.384 154.5 6.384C154.052 6.384 153.648 6.488 153.288 6.696C152.936 6.896 152.656 7.184 152.448 7.56C152.248 7.936 152.148 8.364 152.148 8.844C152.148 9.324 152.248 9.752 152.448 10.128C152.656 10.504 152.936 10.796 153.288 11.004C153.648 11.204 154.052 11.304 154.5 11.304ZM160.26 6.924C160.46 6.5 160.756 6.18 161.148 5.964C161.548 5.748 162.04 5.64 162.624 5.64V6.468L162.42 6.456C161.756 6.456 161.236 6.66 160.86 7.068C160.484 7.476 160.296 8.048 160.296 8.784V12H159.444V5.688H160.26V6.924ZM169.868 3.096V12H169.052V10.752C168.796 11.176 168.456 11.5 168.032 11.724C167.616 11.948 167.144 12.06 166.616 12.06C166.024 12.06 165.488 11.924 165.008 11.652C164.528 11.38 164.152 11 163.88 10.512C163.608 10.024 163.472 9.468 163.472 8.844C163.472 8.22 163.608 7.664 163.88 7.176C164.152 6.688 164.528 6.312 165.008 6.048C165.488 5.776 166.024 5.64 166.616 5.64C167.128 5.64 167.588 5.748 167.996 5.964C168.412 6.172 168.752 6.48 169.016 6.888V3.096H169.868ZM166.688 11.304C167.128 11.304 167.524 11.204 167.876 11.004C168.236 10.796 168.516 10.504 168.716 10.128C168.924 9.752 169.028 9.324 169.028 8.844C169.028 8.364 168.924 7.936 168.716 7.56C168.516 7.184 168.236 6.896 167.876 6.696C167.524 6.488 167.128 6.384 166.688 6.384C166.24 6.384 165.836 6.488 165.476 6.696C165.124 6.896 164.844 7.184 164.636 7.56C164.436 7.936 164.336 8.364 164.336 8.844C164.336 9.324 164.436 9.752 164.636 10.128C164.844 10.504 165.124 10.796 165.476 11.004C165.836 11.204 166.24 11.304 166.688 11.304ZM177.737 9.108H172.457C172.505 9.764 172.757 10.296 173.213 10.704C173.669 11.104 174.245 11.304 174.941 11.304C175.333 11.304 175.693 11.236 176.021 11.1C176.349 10.956 176.633 10.748 176.873 10.476L177.353 11.028C177.073 11.364 176.721 11.62 176.297 11.796C175.881 11.972 175.421 12.06 174.917 12.06C174.269 12.06 173.693 11.924 173.189 11.652C172.693 11.372 172.305 10.988 172.025 10.5C171.745 10.012 171.605 9.46 171.605 8.844C171.605 8.228 171.737 7.676 172.001 7.188C172.273 6.7 172.641 6.32 173.105 6.048C173.577 5.776 174.105 5.64 174.689 5.64C175.273 5.64 175.797 5.776 176.261 6.048C176.725 6.32 177.089 6.7 177.353 7.188C177.617 7.668 177.749 8.22 177.749 8.844L177.737 9.108ZM174.689 6.372C174.081 6.372 173.569 6.568 173.153 6.96C172.745 7.344 172.513 7.848 172.457 8.472H176.933C176.877 7.848 176.641 7.344 176.225 6.96C175.817 6.568 175.305 6.372 174.689 6.372ZM180.299 6.924C180.499 6.5 180.795 6.18 181.187 5.964C181.587 5.748 182.079 5.64 182.663 5.64V6.468L182.459 6.456C181.795 6.456 181.275 6.66 180.899 7.068C180.523 7.476 180.335 8.048 180.335 8.784V12H179.483V5.688H180.299V6.924ZM190.764 11.616C190.604 11.76 190.404 11.872 190.164 11.952C189.932 12.024 189.688 12.06 189.432 12.06C188.84 12.06 188.384 11.9 188.064 11.58C187.744 11.26 187.584 10.808 187.584 10.224V6.408H186.456V5.688H187.584V4.308H188.436V5.688H190.356V6.408H188.436V10.176C188.436 10.552 188.528 10.84 188.712 11.04C188.904 11.232 189.176 11.328 189.528 11.328C189.704 11.328 189.872 11.3 190.032 11.244C190.2 11.188 190.344 11.108 190.464 11.004L190.764 11.616ZM194.672 12.06C194.064 12.06 193.516 11.924 193.028 11.652C192.54 11.372 192.156 10.988 191.876 10.5C191.596 10.012 191.456 9.46 191.456 8.844C191.456 8.228 191.596 7.676 191.876 7.188C192.156 6.7 192.54 6.32 193.028 6.048C193.516 5.776 194.064 5.64 194.672 5.64C195.28 5.64 195.828 5.776 196.316 6.048C196.804 6.32 197.184 6.7 197.456 7.188C197.736 7.676 197.876 8.228 197.876 8.844C197.876 9.46 197.736 10.012 197.456 10.5C197.184 10.988 196.804 11.372 196.316 11.652C195.828 11.924 195.28 12.06 194.672 12.06ZM194.672 11.304C195.12 11.304 195.52 11.204 195.872 11.004C196.232 10.796 196.512 10.504 196.712 10.128C196.912 9.752 197.012 9.324 197.012 8.844C197.012 8.364 196.912 7.936 196.712 7.56C196.512 7.184 196.232 6.896 195.872 6.696C195.52 6.488 195.12 6.384 194.672 6.384C194.224 6.384 193.82 6.488 193.46 6.696C193.108 6.896 192.828 7.184 192.62 7.56C192.42 7.936 192.32 8.364 192.32 8.844C192.32 9.324 192.42 9.752 192.62 10.128C192.828 10.504 193.108 10.796 193.46 11.004C193.82 11.204 194.224 11.304 194.672 11.304ZM210.628 5.64C211.42 5.64 212.04 5.868 212.488 6.324C212.944 6.78 213.172 7.452 213.172 8.34V12H212.32V8.424C212.32 7.768 212.16 7.268 211.84 6.924C211.528 6.58 211.084 6.408 210.508 6.408C209.852 6.408 209.336 6.612 208.96 7.02C208.584 7.42 208.396 7.976 208.396 8.688V12H207.544V8.424C207.544 7.768 207.384 7.268 207.064 6.924C206.752 6.58 206.304 6.408 205.72 6.408C205.072 6.408 204.556 6.612 204.172 7.02C203.796 7.42 203.608 7.976 203.608 8.688V12H202.756V5.688H203.572V6.84C203.796 6.456 204.108 6.16 204.508 5.952C204.908 5.744 205.368 5.64 205.888 5.64C206.416 5.64 206.872 5.752 207.256 5.976C207.648 6.2 207.94 6.532 208.132 6.972C208.364 6.556 208.696 6.232 209.128 6C209.568 5.76 210.068 5.64 210.628 5.64ZM221.002 9.108H215.722C215.77 9.764 216.022 10.296 216.478 10.704C216.934 11.104 217.51 11.304 218.206 11.304C218.598 11.304 218.958 11.236 219.286 11.1C219.614 10.956 219.898 10.748 220.138 10.476L220.618 11.028C220.338 11.364 219.986 11.62 219.562 11.796C219.146 11.972 218.686 12.06 218.182 12.06C217.534 12.06 216.958 11.924 216.454 11.652C215.958 11.372 215.57 10.988 215.29 10.5C215.01 10.012 214.87 9.46 214.87 8.844C214.87 8.228 215.002 7.676 215.266 7.188C215.538 6.7 215.906 6.32 216.37 6.048C216.842 5.776 217.37 5.64 217.954 5.64C218.538 5.64 219.062 5.776 219.526 6.048C219.99 6.32 220.354 6.7 220.618 7.188C220.882 7.668 221.014 8.22 221.014 8.844L221.002 9.108ZM217.954 6.372C217.346 6.372 216.834 6.568 216.418 6.96C216.01 7.344 215.778 7.848 215.722 8.472H220.198C220.142 7.848 219.906 7.344 219.49 6.96C219.082 6.568 218.57 6.372 217.954 6.372ZM228.245 9.108H222.965C223.013 9.764 223.265 10.296 223.721 10.704C224.177 11.104 224.753 11.304 225.449 11.304C225.841 11.304 226.201 11.236 226.529 11.1C226.857 10.956 227.141 10.748 227.381 10.476L227.861 11.028C227.581 11.364 227.229 11.62 226.805 11.796C226.389 11.972 225.929 12.06 225.425 12.06C224.777 12.06 224.201 11.924 223.697 11.652C223.201 11.372 222.813 10.988 222.533 10.5C222.253 10.012 222.113 9.46 222.113 8.844C222.113 8.228 222.245 7.676 222.509 7.188C222.781 6.7 223.149 6.32 223.613 6.048C224.085 5.776 224.613 5.64 225.197 5.64C225.781 5.64 226.305 5.776 226.769 6.048C227.233 6.32 227.597 6.7 227.861 7.188C228.125 7.668 228.257 8.22 228.257 8.844L228.245 9.108ZM225.197 6.372C224.589 6.372 224.077 6.568 223.661 6.96C223.253 7.344 223.021 7.848 222.965 8.472H227.441C227.385 7.848 227.149 7.344 226.733 6.96C226.325 6.568 225.813 6.372 225.197 6.372ZM233.315 11.616C233.155 11.76 232.955 11.872 232.715 11.952C232.483 12.024 232.239 12.06 231.983 12.06C231.391 12.06 230.935 11.9 230.615 11.58C230.295 11.26 230.135 10.808 230.135 10.224V6.408H229.007V5.688H230.135V4.308H230.987V5.688H232.907V6.408H230.987V10.176C230.987 10.552 231.079 10.84 231.263 11.04C231.455 11.232 231.727 11.328 232.079 11.328C232.255 11.328 232.423 11.3 232.583 11.244C232.751 11.188 232.895 11.108 233.015 11.004L233.315 11.616ZM80.8479 25.616C80.6879 25.76 80.4879 25.872 80.2479 25.952C80.0159 26.024 79.7719 26.06 79.5159 26.06C78.9239 26.06 78.4679 25.9 78.1479 25.58C77.8279 25.26 77.6679 24.808 77.6679 24.224V20.408H76.5399V19.688H77.6679V18.308H78.5199V19.688H80.4399V20.408H78.5199V24.176C78.5199 24.552 78.6119 24.84 78.7959 25.04C78.9879 25.232 79.2599 25.328 79.6119 25.328C79.7879 25.328 79.9559 25.3 80.1159 25.244C80.2839 25.188 80.4279 25.108 80.5479 25.004L80.8479 25.616ZM85.6149 19.64C86.4069 19.64 87.0349 19.872 87.4989 20.336C87.9709 20.792 88.2069 21.46 88.2069 22.34V26H87.3549V22.424C87.3549 21.768 87.1909 21.268 86.8629 20.924C86.5349 20.58 86.0669 20.408 85.4589 20.408C84.7789 20.408 84.2389 20.612 83.8389 21.02C83.4469 21.42 83.2509 21.976 83.2509 22.688V26H82.3989V17.096H83.2509V20.792C83.4829 20.424 83.8029 20.14 84.2109 19.94C84.6189 19.74 85.0869 19.64 85.6149 19.64ZM96.0395 23.108H90.7595C90.8075 23.764 91.0595 24.296 91.5155 24.704C91.9715 25.104 92.5475 25.304 93.2435 25.304C93.6355 25.304 93.9955 25.236 94.3235 25.1C94.6515 24.956 94.9355 24.748 95.1755 24.476L95.6555 25.028C95.3755 25.364 95.0235 25.62 94.5995 25.796C94.1835 25.972 93.7235 26.06 93.2195 26.06C92.5715 26.06 91.9955 25.924 91.4915 25.652C90.9955 25.372 90.6075 24.988 90.3275 24.5C90.0475 24.012 89.9075 23.46 89.9075 22.844C89.9075 22.228 90.0395 21.676 90.3035 21.188C90.5755 20.7 90.9435 20.32 91.4075 20.048C91.8795 19.776 92.4075 19.64 92.9915 19.64C93.5755 19.64 94.0995 19.776 94.5635 20.048C95.0275 20.32 95.3915 20.7 95.6555 21.188C95.9195 21.668 96.0515 22.22 96.0515 22.844L96.0395 23.108ZM92.9915 20.372C92.3835 20.372 91.8715 20.568 91.4555 20.96C91.0475 21.344 90.8155 21.848 90.7595 22.472H95.2355C95.1795 21.848 94.9435 21.344 94.5275 20.96C94.1195 20.568 93.6075 20.372 92.9915 20.372ZM103.542 26.06C102.918 26.06 102.358 25.924 101.862 25.652C101.374 25.38 100.99 25 100.71 24.512C100.43 24.016 100.29 23.46 100.29 22.844C100.29 22.228 100.43 21.676 100.71 21.188C100.99 20.7 101.374 20.32 101.862 20.048C102.358 19.776 102.918 19.64 103.542 19.64C104.086 19.64 104.57 19.748 104.994 19.964C105.426 20.172 105.766 20.48 106.014 20.888L105.378 21.32C105.17 21.008 104.906 20.776 104.586 20.624C104.266 20.464 103.918 20.384 103.542 20.384C103.086 20.384 102.674 20.488 102.306 20.696C101.946 20.896 101.662 21.184 101.454 21.56C101.254 21.936 101.154 22.364 101.154 22.844C101.154 23.332 101.254 23.764 101.454 24.14C101.662 24.508 101.946 24.796 102.306 25.004C102.674 25.204 103.086 25.304 103.542 25.304C103.918 25.304 104.266 25.228 104.586 25.076C104.906 24.924 105.17 24.692 105.378 24.38L106.014 24.812C105.766 25.22 105.426 25.532 104.994 25.748C104.562 25.956 104.078 26.06 103.542 26.06ZM110.163 26.06C109.555 26.06 109.007 25.924 108.519 25.652C108.031 25.372 107.647 24.988 107.367 24.5C107.087 24.012 106.947 23.46 106.947 22.844C106.947 22.228 107.087 21.676 107.367 21.188C107.647 20.7 108.031 20.32 108.519 20.048C109.007 19.776 109.555 19.64 110.163 19.64C110.771 19.64 111.319 19.776 111.807 20.048C112.295 20.32 112.675 20.7 112.947 21.188C113.227 21.676 113.367 22.228 113.367 22.844C113.367 23.46 113.227 24.012 112.947 24.5C112.675 24.988 112.295 25.372 111.807 25.652C111.319 25.924 110.771 26.06 110.163 26.06ZM110.163 25.304C110.611 25.304 111.011 25.204 111.363 25.004C111.723 24.796 112.003 24.504 112.203 24.128C112.403 23.752 112.503 23.324 112.503 22.844C112.503 22.364 112.403 21.936 112.203 21.56C112.003 21.184 111.723 20.896 111.363 20.696C111.011 20.488 110.611 20.384 110.163 20.384C109.715 20.384 109.311 20.488 108.951 20.696C108.599 20.896 108.319 21.184 108.111 21.56C107.911 21.936 107.811 22.364 107.811 22.844C107.811 23.324 107.911 23.752 108.111 24.128C108.319 24.504 108.599 24.796 108.951 25.004C109.311 25.204 109.715 25.304 110.163 25.304ZM118.322 19.64C119.114 19.64 119.742 19.872 120.206 20.336C120.678 20.792 120.914 21.46 120.914 22.34V26H120.062V22.424C120.062 21.768 119.898 21.268 119.57 20.924C119.242 20.58 118.774 20.408 118.166 20.408C117.486 20.408 116.946 20.612 116.546 21.02C116.154 21.42 115.958 21.976 115.958 22.688V26H115.106V19.688H115.922V20.852C116.154 20.468 116.474 20.172 116.882 19.964C117.298 19.748 117.778 19.64 118.322 19.64ZM124.919 26.06C124.407 26.06 123.915 25.988 123.443 25.844C122.979 25.692 122.615 25.504 122.351 25.28L122.735 24.608C122.999 24.816 123.331 24.988 123.731 25.124C124.131 25.252 124.547 25.316 124.979 25.316C125.555 25.316 125.979 25.228 126.251 25.052C126.531 24.868 126.671 24.612 126.671 24.284C126.671 24.052 126.595 23.872 126.443 23.744C126.291 23.608 126.099 23.508 125.867 23.444C125.635 23.372 125.327 23.304 124.943 23.24C124.431 23.144 124.019 23.048 123.707 22.952C123.395 22.848 123.127 22.676 122.903 22.436C122.687 22.196 122.579 21.864 122.579 21.44C122.579 20.912 122.799 20.48 123.239 20.144C123.679 19.808 124.291 19.64 125.075 19.64C125.483 19.64 125.891 19.696 126.299 19.808C126.707 19.912 127.043 20.052 127.307 20.228L126.935 20.912C126.415 20.552 125.795 20.372 125.075 20.372C124.531 20.372 124.119 20.468 123.839 20.66C123.567 20.852 123.431 21.104 123.431 21.416C123.431 21.656 123.507 21.848 123.659 21.992C123.819 22.136 124.015 22.244 124.247 22.316C124.479 22.38 124.799 22.448 125.207 22.52C125.711 22.616 126.115 22.712 126.419 22.808C126.723 22.904 126.983 23.068 127.199 23.3C127.415 23.532 127.523 23.852 127.523 24.26C127.523 24.812 127.291 25.252 126.827 25.58C126.371 25.9 125.735 26.06 124.919 26.06ZM132.422 25.616C132.262 25.76 132.062 25.872 131.822 25.952C131.59 26.024 131.346 26.06 131.09 26.06C130.498 26.06 130.042 25.9 129.722 25.58C129.402 25.26 129.242 24.808 129.242 24.224V20.408H128.114V19.688H129.242V18.308H130.094V19.688H132.014V20.408H130.094V24.176C130.094 24.552 130.186 24.84 130.37 25.04C130.562 25.232 130.834 25.328 131.186 25.328C131.362 25.328 131.53 25.3 131.69 25.244C131.858 25.188 132.002 25.108 132.122 25.004L132.422 25.616ZM134.789 20.924C134.989 20.5 135.285 20.18 135.677 19.964C136.077 19.748 136.569 19.64 137.153 19.64V20.468L136.949 20.456C136.285 20.456 135.765 20.66 135.389 21.068C135.013 21.476 134.825 22.048 134.825 22.784V26H133.973V19.688H134.789V20.924ZM140.892 19.64C141.716 19.64 142.348 19.848 142.788 20.264C143.228 20.672 143.448 21.28 143.448 22.088V26H142.632V25.016C142.44 25.344 142.156 25.6 141.78 25.784C141.412 25.968 140.972 26.06 140.46 26.06C139.756 26.06 139.196 25.892 138.78 25.556C138.364 25.22 138.156 24.776 138.156 24.224C138.156 23.688 138.348 23.256 138.732 22.928C139.124 22.6 139.744 22.436 140.592 22.436H142.596V22.052C142.596 21.508 142.444 21.096 142.14 20.816C141.836 20.528 141.392 20.384 140.808 20.384C140.408 20.384 140.024 20.452 139.656 20.588C139.288 20.716 138.972 20.896 138.708 21.128L138.324 20.492C138.644 20.22 139.028 20.012 139.476 19.868C139.924 19.716 140.396 19.64 140.892 19.64ZM140.592 25.388C141.072 25.388 141.484 25.28 141.828 25.064C142.172 24.84 142.428 24.52 142.596 24.104V23.072H140.616C139.536 23.072 138.996 23.448 138.996 24.2C138.996 24.568 139.136 24.86 139.416 25.076C139.696 25.284 140.088 25.388 140.592 25.388ZM145.762 19.688H146.614V26H145.762V19.688ZM146.194 18.308C146.018 18.308 145.87 18.248 145.75 18.128C145.63 18.008 145.57 17.864 145.57 17.696C145.57 17.536 145.63 17.396 145.75 17.276C145.87 17.156 146.018 17.096 146.194 17.096C146.37 17.096 146.518 17.156 146.638 17.276C146.758 17.388 146.818 17.524 146.818 17.684C146.818 17.86 146.758 18.008 146.638 18.128C146.518 18.248 146.37 18.308 146.194 18.308ZM152.201 19.64C152.993 19.64 153.621 19.872 154.085 20.336C154.557 20.792 154.793 21.46 154.793 22.34V26H153.941V22.424C153.941 21.768 153.777 21.268 153.449 20.924C153.121 20.58 152.653 20.408 152.045 20.408C151.365 20.408 150.825 20.612 150.425 21.02C150.033 21.42 149.837 21.976 149.837 22.688V26H148.985V19.688H149.801V20.852C150.033 20.468 150.353 20.172 150.761 19.964C151.177 19.748 151.657 19.64 152.201 19.64ZM160.43 25.616C160.27 25.76 160.07 25.872 159.83 25.952C159.598 26.024 159.354 26.06 159.098 26.06C158.506 26.06 158.05 25.9 157.73 25.58C157.41 25.26 157.25 24.808 157.25 24.224V20.408H156.122V19.688H157.25V18.308H158.102V19.688H160.022V20.408H158.102V24.176C158.102 24.552 158.194 24.84 158.378 25.04C158.57 25.232 158.842 25.328 159.194 25.328C159.37 25.328 159.538 25.3 159.698 25.244C159.866 25.188 160.01 25.108 160.13 25.004L160.43 25.616ZM163.673 26.06C163.161 26.06 162.669 25.988 162.197 25.844C161.733 25.692 161.369 25.504 161.105 25.28L161.489 24.608C161.753 24.816 162.085 24.988 162.485 25.124C162.885 25.252 163.301 25.316 163.733 25.316C164.309 25.316 164.733 25.228 165.005 25.052C165.285 24.868 165.425 24.612 165.425 24.284C165.425 24.052 165.349 23.872 165.197 23.744C165.045 23.608 164.853 23.508 164.621 23.444C164.389 23.372 164.081 23.304 163.697 23.24C163.185 23.144 162.773 23.048 162.461 22.952C162.149 22.848 161.881 22.676 161.657 22.436C161.441 22.196 161.333 21.864 161.333 21.44C161.333 20.912 161.553 20.48 161.993 20.144C162.433 19.808 163.045 19.64 163.829 19.64C164.237 19.64 164.645 19.696 165.053 19.808C165.461 19.912 165.797 20.052 166.061 20.228L165.689 20.912C165.169 20.552 164.549 20.372 163.829 20.372C163.285 20.372 162.873 20.468 162.593 20.66C162.321 20.852 162.185 21.104 162.185 21.416C162.185 21.656 162.261 21.848 162.413 21.992C162.573 22.136 162.769 22.244 163.001 22.316C163.233 22.38 163.553 22.448 163.961 22.52C164.465 22.616 164.869 22.712 165.173 22.808C165.477 22.904 165.737 23.068 165.953 23.3C166.169 23.532 166.277 23.852 166.277 24.26C166.277 24.812 166.045 25.252 165.581 25.58C165.125 25.9 164.489 26.06 163.673 26.06Z" transform="translate(44 303)" fill="#4A4A4A"/>
<path d="M73.5343 8H75.7543V27.08H87.5143V29H73.5343V8ZM104.256 21.77H91.0559C91.1759 23.41 91.8059 24.74 92.9459 25.76C94.0859 26.76 95.5259 27.26 97.2659 27.26C98.2459 27.26 99.1459 27.09 99.9659 26.75C100.786 26.39 101.496 25.87 102.096 25.19L103.296 26.57C102.596 27.41 101.716 28.05 100.656 28.49C99.6159 28.93 98.4659 29.15 97.2059 29.15C95.5859 29.15 94.1459 28.81 92.8859 28.13C91.6459 27.43 90.6759 26.47 89.9759 25.25C89.2759 24.03 88.9259 22.65 88.9259 21.11C88.9259 19.57 89.2559 18.19 89.9159 16.97C90.5959 15.75 91.5159 14.8 92.6759 14.12C93.8559 13.44 95.1759 13.1 96.6359 13.1C98.0959 13.1 99.4059 13.44 100.566 14.12C101.726 14.8 102.636 15.75 103.296 16.97C103.956 18.17 104.286 19.55 104.286 21.11L104.256 21.77ZM96.6359 14.93C95.1159 14.93 93.8359 15.42 92.7959 16.4C91.7759 17.36 91.1959 18.62 91.0559 20.18H102.246C102.106 18.62 101.516 17.36 100.476 16.4C99.4559 15.42 98.1759 14.93 96.6359 14.93ZM121.588 13.22L114.568 29H112.378L105.388 13.22H107.608L113.518 26.66L119.488 13.22H121.588ZM137.889 21.77H124.689C124.809 23.41 125.439 24.74 126.579 25.76C127.719 26.76 129.159 27.26 130.899 27.26C131.879 27.26 132.779 27.09 133.599 26.75C134.419 26.39 135.129 25.87 135.729 25.19L136.929 26.57C136.229 27.41 135.349 28.05 134.289 28.49C133.249 28.93 132.099 29.15 130.839 29.15C129.219 29.15 127.779 28.81 126.519 28.13C125.279 27.43 124.309 26.47 123.609 25.25C122.909 24.03 122.559 22.65 122.559 21.11C122.559 19.57 122.889 18.19 123.549 16.97C124.229 15.75 125.149 14.8 126.309 14.12C127.489 13.44 128.809 13.1 130.269 13.1C131.729 13.1 133.039 13.44 134.199 14.12C135.359 14.8 136.269 15.75 136.929 16.97C137.589 18.17 137.919 19.55 137.919 21.11L137.889 21.77ZM130.269 14.93C128.749 14.93 127.469 15.42 126.429 16.4C125.409 17.36 124.829 18.62 124.689 20.18H135.879C135.739 18.62 135.149 17.36 134.109 16.4C133.089 15.42 131.809 14.93 130.269 14.93ZM144.294 16.31C144.794 15.25 145.534 14.45 146.514 13.91C147.514 13.37 148.744 13.1 150.204 13.1V15.17L149.694 15.14C148.034 15.14 146.734 15.65 145.794 16.67C144.854 17.69 144.384 19.12 144.384 20.96V29H142.254V13.22H144.294V16.31ZM158.408 29.15C157.128 29.15 155.898 28.97 154.718 28.61C153.558 28.23 152.648 27.76 151.988 27.2L152.948 25.52C153.608 26.04 154.438 26.47 155.438 26.81C156.438 27.13 157.478 27.29 158.558 27.29C159.998 27.29 161.058 27.07 161.738 26.63C162.438 26.17 162.788 25.53 162.788 24.71C162.788 24.13 162.598 23.68 162.218 23.36C161.838 23.02 161.358 22.77 160.778 22.61C160.198 22.43 159.428 22.26 158.468 22.1C157.188 21.86 156.158 21.62 155.378 21.38C154.598 21.12 153.928 20.69 153.368 20.09C152.828 19.49 152.558 18.66 152.558 17.6C152.558 16.28 153.108 15.2 154.208 14.36C155.308 13.52 156.838 13.1 158.798 13.1C159.818 13.1 160.838 13.24 161.858 13.52C162.878 13.78 163.718 14.13 164.378 14.57L163.448 16.28C162.148 15.38 160.598 14.93 158.798 14.93C157.438 14.93 156.408 15.17 155.708 15.65C155.028 16.13 154.688 16.76 154.688 17.54C154.688 18.14 154.878 18.62 155.258 18.98C155.658 19.34 156.148 19.61 156.728 19.79C157.308 19.95 158.108 20.12 159.128 20.3C160.388 20.54 161.398 20.78 162.158 21.02C162.918 21.26 163.568 21.67 164.108 22.25C164.648 22.83 164.918 23.63 164.918 24.65C164.918 26.03 164.338 27.13 163.178 27.95C162.038 28.75 160.448 29.15 158.408 29.15Z" transform="translate(51 267)" fill="#4A4A4A"/>
<path d="M6.91631 22.9256L2.06744 22.8459C0.962995 22.8278 0.0812562 21.844 0.0980152 20.6486C0.101941 20.3686 0.156037 20.0921 0.257256 19.8344L7.53039 1.31833C7.96257 0.218072 9.13692 -0.294647 10.1534 0.173138C10.6166 0.386288 10.9885 0.780626 11.1949 1.27747L18.9908 20.0411C19.4438 21.1315 18.9944 22.4129 17.987 22.9032C17.7197 23.0333 17.4293 23.0983 17.1363 23.0934L11.9163 23.0077V228.775L17.0998 228.86C18.2042 228.878 19.086 229.862 19.0692 231.057C19.0653 231.337 19.0112 231.614 18.91 231.871L11.6368 250.387C11.2047 251.488 10.0302 252 9.01373 251.533C8.55054 251.319 8.17865 250.925 7.97222 250.428L0.176445 231.665C-0.276582 230.574 0.172837 229.293 1.18023 228.802C1.44747 228.672 1.73783 228.607 2.03082 228.612L6.91631 228.693V22.9256Z" transform="translate(318 43)" fill="#C2C2C2"/>
<path d="M6.91633 22.9256L2.06743 22.8459C0.96299 22.8278 0.0812486 21.844 0.0980083 20.6486C0.101934 20.3686 0.156004 20.0921 0.257223 19.8344L7.53035 1.31833C7.96253 0.218072 9.13693 -0.294647 10.1534 0.173138C10.6166 0.386288 10.9885 0.780626 11.195 1.27747L18.9907 20.0411C19.4438 21.1315 18.9944 22.4129 17.987 22.9032C17.7197 23.0333 17.4293 23.0983 17.1364 23.0934L11.9163 23.0077V228.775L17.0998 228.86C18.2042 228.878 19.0859 229.862 19.0692 231.057C19.0653 231.337 19.0112 231.614 18.91 231.871L11.6368 250.387C11.2047 251.488 10.0303 252 9.01375 251.533C8.55057 251.319 8.17866 250.925 7.97223 250.428L0.176448 231.665C-0.276579 230.574 0.172824 229.293 1.18022 228.802C1.44746 228.672 1.73785 228.607 2.03084 228.612L6.91633 228.693V22.9256Z" transform="translate(0 43)" fill="#C2C2C2"/>
</svg>
